P3
# Created by GIMP version 2.10.32 PNM plug-in
64 64
255
0
0
0
0
0
0
0
0
0
0
0
0
0
0
0
0
0
0
0
0
0
0
0
0
0
0
0
0
0
0
0
0
0
0
0
0
0
0
0
0
0
0
0
0
0
0
0
0
0
0
0
0
0
0
0
0
0
0
0
0
0
0
0
0
0
0
0
0
0
0
0
0
0
0
0
0
0
0
0
0
0
0
0
0
0
0
0
0
0
0
0
0
0
0
0
0
0
0
0
0
0
0
0
0
0
0
0
0
0
0
0
0
0
0
0
0
0
0
0
0
0
0
0
0
0
0
0
0
0
0
0
0
0
0
0
0
0
0
0
0
0
0
0
0
0
0
0
0
0
0
0
0
0
0
0
0
0
0
0
0
0
0
0
0
0
0
0
0
0
0
0
0
0
0
0
0
0
0
0
0
0
0
0
0
0
0
0
0
0
0
0
0
0
0
0
29
147
135
29
147
135
29
147
135
29
147
135
29
147
135
29
147
135
29
147
135
29
147
135
29
147
135
29
147
135
29
147
135
29
147
135
29
147
135
0
0
0
29
147
135
29
147
135
29
147
135
29
147
135
29
147
135
29
147
135
29
147
135
29
147
135
29
147
135
29
147
135
29
147
135
29
147
135
29
147
135
0
0
0
29
147
135
29
147
135
29
147
135
29
147
135
29
147
135
29
147
135
29
147
135
29
147
135
29
147
135
29
147
135
29
147
135
29
147
135
29
147
135
0
0
0
29
147
135
29
147
135
29
147
135
29
147
135
29
147
135
29
147
135
29
147
135
29
147
135
29
147
135
29
147
135
29
147
135
29
147
135
29
147
135
0
0
0
29
147
135
29
147
135
29
147
135
29
147
135
29
147
135
29
147
135
0
0
0
0
0
0
29
147
135
29
147
135
29
147
135
29
147
135
29
147
135
29
147
135
29
147
135
29
147
135
29
147
135
29
147
135
29
147
135
29
147
135
29
147
135
0
0
0
29
147
135
29
147
135
29
147
135
29
147
135
29
147
135
29
147
135
29
147
135
29
147
135
29
147
135
29
147
135
29
147
135
29
147
135
29
147
135
0
0
0
29
147
135
29
147
135
29
147
135
29
147
135
29
147
135
29
147
135
29
147
135
29
147
135
29
147
135
29
147
135
29
147
135
29
147
135
29
147
135
0
0
0
29
147
135
29
147
135
29
147
135
29
147
135
29
147
135
29
147
135
29
147
135
29
147
135
29
147
135
29
147
135
29
147
135
29
147
135
29
147
135
0
0
0
29
147
135
29
147
135
29
147
135
29
147
135
29
147
135
29
147
135
0
0
0
0
0
0
29
147
135
29
147
135
29
147
135
29
147
135
29
147
135
29
147
135
29
147
135
29
147
135
29
147
135
29
147
135
29
147
135
29
147
135
29
147
135
0
0
0
29
147
135
29
147
135
29
147
135
29
147
135
29
147
135
29
147
135
29
147
135
29
147
135
29
147
135
29
147
135
29
147
135
29
147
135
29
147
135
0
0
0
29
147
135
29
147
135
29
147
135
29
147
135
29
147
135
29
147
135
29
147
135
29
147
135
29
147
135
29
147
135
29
147
135
29
147
135
29
147
135
0
0
0
29
147
135
29
147
135
29
147
135
29
147
135
29
147
135
29
147
135
29
147
135
29
147
135
29
147
135
29
147
135
29
147
135
29
147
135
29
147
135
0
0
0
29
147
135
29
147
135
29
147
135
29
147
135
29
147
135
29
147
135
0
0
0
0
0
0
29
147
135
29
147
135
29
147
135
29
147
135
29
147
135
29
147
135
29
147
135
29
147
135
29
147
135
29
147
135
29
147
135
29
147
135
29
147
135
0
0
0
29
147
135
29
147
135
29
147
135
29
147
135
29
147
135
29
147
135
29
147
135
29
147
135
29
147
135
29
147
135
29
147
135
29
147
135
29
147
135
0
0
0
29
147
135
29
147
135
29
147
135
29
147
135
29
147
135
29
147
135
29
147
135
29
147
135
29
147
135
29
147
135
29
147
135
29
147
135
29
147
135
0
0
0
29
147
135
29
147
135
29
147
135
29
147
135
29
147
135
29
147
135
29
147
135
29
147
135
29
147
135
29
147
135
29
147
135
29
147
135
29
147
135
0
0
0
29
147
135
29
147
135
29
147
135
29
147
135
29
147
135
29
147
135
0
0
0
0
0
0
0
0
0
0
0
0
0
0
0
0
0
0
0
0
0
0
0
0
0
0
0
0
0
0
0
0
0
0
0
0
0
0
0
0
0
0
0
0
0
0
0
0
0
0
0
0
0
0
0
0
0
0
0
0
0
0
0
0
0
0
0
0
0
0
0
0
0
0
0
0
0
0
0
0
0
0
0
0
0
0
0
0
0
0
0
0
0
0
0
0
0
0
0
0
0
0
0
0
0
0
0
0
0
0
0
0
0
0
0
0
0
0
0
0
0
0
0
0
0
0
0
0
0
0
0
0
0
0
0
0
0
0
0
0
0
0
0
0
0
0
0
0
0
0
0
0
0
0
0
0
0
0
0
0
0
0
0
0
0
0
0
0
0
0
0
0
0
0
0
0
0
0
0
0
0
0
0
0
0
0
0
0
0
0
0
0
0
0
0
0
0
0
29
147
135
29
147
135
29
147
135
29
147
135
29
147
135
29
147
135
0
0
0
29
147
135
29
147
135
29
147
135
29
147
135
29
147
135
29
147
135
29
147
135
29
147
135
29
147
135
29
147
135
29
147
135
29
147
135
29
147
135
0
0
0
29
147
135
29
147
135
29
147
135
29
147
135
29
147
135
29
147
135
29
147
135
29
147
135
29
147
135
29
147
135
29
147
135
29
147
135
29
147
135
0
0
0
29
147
135
29
147
135
29
147
135
29
147
135
29
147
135
29
147
135
29
147
135
29
147
135
29
147
135
29
147
135
29
147
135
29
147
135
29
147
135
0
0
0
29
147
135
29
147
135
29
147
135
29
147
135
29
147
135
29
147
135
29
147
135
29
147
135
29
147
135
29
147
135
29
147
135
29
147
135
29
147
135
0
0
0
0
0
0
29
147
135
29
147
135
29
147
135
29
147
135
29
147
135
29
147
135
0
0
0
29
147
135
29
147
135
29
147
135
29
147
135
29
147
135
29
147
135
29
147
135
29
147
135
29
147
135
29
147
135
29
147
135
29
147
135
29
147
135
0
0
0
29
147
135
29
147
135
29
147
135
29
147
135
29
147
135
29
147
135
29
147
135
29
147
135
29
147
135
29
147
135
29
147
135
29
147
135
29
147
135
0
0
0
29
147
135
29
147
135
29
147
135
29
147
135
29
147
135
29
147
135
29
147
135
29
147
135
29
147
135
29
147
135
29
147
135
29
147
135
29
147
135
0
0
0
29
147
135
29
147
135
29
147
135
29
147
135
29
147
135
29
147
135
29
147
135
29
147
135
29
147
135
29
147
135
29
147
135
29
147
135
29
147
135
0
0
0
0
0
0
29
147
135
29
147
135
29
147
135
29
147
135
29
147
135
29
147
135
0
0
0
29
147
135
29
147
135
29
147
135
29
147
135
29
147
135
29
147
135
29
147
135
29
147
135
29
147
135
29
147
135
29
147
135
29
147
135
29
147
135
0
0
0
29
147
135
29
147
135
29
147
135
29
147
135
29
147
135
29
147
135
29
147
135
29
147
135
29
147
135
29
147
135
29
147
135
29
147
135
29
147
135
0
0
0
29
147
135
29
147
135
29
147
135
29
147
135
29
147
135
29
147
135
29
147
135
29
147
135
29
147
135
29
147
135
29
147
135
29
147
135
29
147
135
0
0
0
29
147
135
29
147
135
29
147
135
29
147
135
29
147
135
29
147
135
29
147
135
29
147
135
29
147
135
29
147
135
29
147
135
29
147
135
29
147
135
0
0
0
0
0
0
29
147
135
29
147
135
29
147
135
29
147
135
29
147
135
29
147
135
0
0
0
29
147
135
29
147
135
29
147
135
29
147
135
29
147
135
29
147
135
29
147
135
29
147
135
29
147
135
29
147
135
29
147
135
29
147
135
29
147
135
0
0
0
29
147
135
29
147
135
29
147
135
29
147
135
29
147
135
29
147
135
29
147
135
29
147
135
29
147
135
29
147
135
29
147
135
29
147
135
29
147
135
0
0
0
29
147
135
29
147
135
29
147
135
29
147
135
29
147
135
29
147
135
29
147
135
29
147
135
29
147
135
29
147
135
29
147
135
29
147
135
29
147
135
0
0
0
29
147
135
29
147
135
29
147
135
29
147
135
29
147
135
29
147
135
29
147
135
29
147
135
29
147
135
29
147
135
29
147
135
29
147
135
29
147
135
0
0
0
0
0
0
0
0
0
0
0
0
0
0
0
0
0
0
0
0
0
0
0
0
0
0
0
0
0
0
0
0
0
0
0
0
0
0
0
0
0
0
0
0
0
0
0
0
0
0
0
0
0
0
0
0
0
0
0
0
0
0
0
0
0
0
0
0
0
0
0
0
0
0
0
0
0
0
0
0
0
0
0
0
0
0
0
0
0
0
0
0
0
0
0
0
0
0
0
0
0
0
0
0
0
0
0
0
0
0
0
0
0
0
0
0
0
0
0
0
0
0
0
0
0
0
0
0
0
0
0
0
0
0
0
0
0
0
0
0
0
0
0
0
0
0
0
0
0
0
0
0
0
0
0
0
0
0
0
0
0
0
0
0
0
0
0
0
0
0
0
0
0
0
0
0
0
0
0
0
0
0
0
0
0
0
0
0
0
0
0
0
0
0
0
0
0
0
29
147
135
29
147
135
29
147
135
29
147
135
29
147
135
29
147
135
29
147
135
29
147
135
29
147
135
29
147
135
29
147
135
29
147
135
29
147
135
0
0
0
29
147
135
29
147
135
29
147
135
29
147
135
29
147
135
29
147
135
29
147
135
29
147
135
29
147
135
29
147
135
29
147
135
29
147
135
29
147
135
0
0
0
29
147
135
29
147
135
29
147
135
29
147
135
29
147
135
29
147
135
29
147
135
29
147
135
29
147
135
29
147
135
29
147
135
29
147
135
29
147
135
0
0
0
29
147
135
29
147
135
29
147
135
29
147
135
29
147
135
29
147
135
29
147
135
29
147
135
29
147
135
29
147
135
29
147
135
29
147
135
29
147
135
0
0
0
29
147
135
29
147
135
29
147
135
29
147
135
29
147
135
29
147
135
0
0
0
0
0
0
29
147
135
29
147
135
29
147
135
29
147
135
29
147
135
29
147
135
29
147
135
29
147
135
29
147
135
29
147
135
29
147
135
29
147
135
29
147
135
0
0
0
29
147
135
29
147
135
29
147
135
29
147
135
29
147
135
29
147
135
29
147
135
29
147
135
29
147
135
29
147
135
29
147
135
29
147
135
29
147
135
0
0
0
29
147
135
29
147
135
29
147
135
29
147
135
29
147
135
29
147
135
29
147
135
29
147
135
29
147
135
29
147
135
29
147
135
29
147
135
29
147
135
0
0
0
29
147
135
29
147
135
29
147
135
29
147
135
29
147
135
29
147
135
29
147
135
29
147
135
29
147
135
29
147
135
29
147
135
29
147
135
29
147
135
0
0
0
29
147
135
29
147
135
29
147
135
29
147
135
29
147
135
29
147
135
0
0
0
0
0
0
29
147
135
29
147
135
29
147
135
29
147
135
29
147
135
29
147
135
29
147
135
29
147
135
29
147
135
29
147
135
29
147
135
29
147
135
29
147
135
0
0
0
29
147
135
29
147
135
29
147
135
29
147
135
29
147
135
29
147
135
29
147
135
29
147
135
29
147
135
29
147
135
29
147
135
29
147
135
29
147
135
0
0
0
29
147
135
29
147
135
29
147
135
29
147
135
29
147
135
29
147
135
29
147
135
29
147
135
29
147
135
29
147
135
29
147
135
29
147
135
29
147
135
0
0
0
29
147
135
29
147
135
29
147
135
29
147
135
29
147
135
29
147
135
29
147
135
29
147
135
29
147
135
29
147
135
29
147
135
29
147
135
29
147
135
0
0
0
29
147
135
29
147
135
29
147
135
29
147
135
29
147
135
29
147
135
0
0
0
0
0
0
29
147
135
29
147
135
29
147
135
29
147
135
29
147
135
29
147
135
29
147
135
29
147
135
29
147
135
29
147
135
29
147
135
29
147
135
29
147
135
0
0
0
29
147
135
29
147
135
29
147
135
29
147
135
29
147
135
29
147
135
29
147
135
29
147
135
29
147
135
29
147
135
29
147
135
29
147
135
29
147
135
0
0
0
29
147
135
29
147
135
29
147
135
29
147
135
29
147
135
29
147
135
29
147
135
29
147
135
29
147
135
29
147
135
29
147
135
29
147
135
29
147
135
0
0
0
29
147
135
29
147
135
29
147
135
29
147
135
29
147
135
29
147
135
29
147
135
29
147
135
29
147
135
29
147
135
29
147
135
29
147
135
29
147
135
0
0
0
29
147
135
29
147
135
29
147
135
29
147
135
29
147
135
29
147
135
0
0
0
0
0
0
0
0
0
0
0
0
0
0
0
0
0
0
0
0
0
0
0
0
0
0
0
0
0
0
0
0
0
0
0
0
0
0
0
0
0
0
0
0
0
0
0
0
0
0
0
0
0
0
0
0
0
0
0
0
0
0
0
0
0
0
0
0
0
0
0
0
0
0
0
0
0
0
0
0
0
0
0
0
0
0
0
0
0
0
0
0
0
0
0
0
0
0
0
0
0
0
0
0
0
0
0
0
0
0
0
0
0
0
0
0
0
0
0
0
0
0
0
0
0
0
0
0
0
0
0
0
0
0
0
0
0
0
0
0
0
0
0
0
0
0
0
0
0
0
0
0
0
0
0
0
0
0
0
0
0
0
0
0
0
0
0
0
0
0
0
0
0
0
0
0
0
0
0
0
0
0
0
0
0
0
0
0
0
0
0
0
0
0
0
0
0
0
29
147
135
29
147
135
29
147
135
29
147
135
29
147
135
29
147
135
0
0
0
29
147
135
29
147
135
29
147
135
29
147
135
29
147
135
29
147
135
29
147
135
29
147
135
29
147
135
29
147
135
29
147
135
29
147
135
29
147
135
0
0
0
29
147
135
29
147
135
29
147
135
29
147
135
29
147
135
29
147
135
29
147
135
29
147
135
29
147
135
29
147
135
29
147
135
29
147
135
29
147
135
0
0
0
29
147
135
29
147
135
29
147
135
29
147
135
29
147
135
29
147
135
29
147
135
29
147
135
29
147
135
29
147
135
29
147
135
29
147
135
29
147
135
0
0
0
29
147
135
29
147
135
29
147
135
29
147
135
29
147
135
29
147
135
29
147
135
29
147
135
29
147
135
29
147
135
29
147
135
29
147
135
29
147
135
0
0
0
0
0
0
29
147
135
29
147
135
29
147
135
29
147
135
29
147
135
29
147
135
0
0
0
29
147
135
29
147
135
29
147
135
29
147
135
29
147
135
29
147
135
29
147
135
29
147
135
29
147
135
29
147
135
29
147
135
29
147
135
29
147
135
0
0
0
29
147
135
29
147
135
29
147
135
29
147
135
29
147
135
29
147
135
29
147
135
29
147
135
29
147
135
29
147
135
29
147
135
29
147
135
29
147
135
0
0
0
29
147
135
29
147
135
29
147
135
29
147
135
29
147
135
29
147
135
29
147
135
29
147
135
29
147
135
29
147
135
29
147
135
29
147
135
29
147
135
0
0
0
29
147
135
29
147
135
29
147
135
29
147
135
29
147
135
29
147
135
29
147
135
29
147
135
29
147
135
29
147
135
29
147
135
29
147
135
29
147
135
0
0
0
0
0
0
29
147
135
29
147
135
29
147
135
29
147
135
29
147
135
29
147
135
0
0
0
29
147
135
29
147
135
29
147
135
29
147
135
29
147
135
29
147
135
29
147
135
29
147
135
29
147
135
29
147
135
29
147
135
29
147
135
29
147
135
0
0
0
29
147
135
29
147
135
29
147
135
29
147
135
29
147
135
29
147
135
29
147
135
29
147
135
29
147
135
29
147
135
29
147
135
29
147
135
29
147
135
0
0
0
29
147
135
29
147
135
29
147
135
29
147
135
29
147
135
29
147
135
29
147
135
29
147
135
29
147
135
29
147
135
29
147
135
29
147
135
29
147
135
0
0
0
29
147
135
29
147
135
29
147
135
29
147
135
29
147
135
29
147
135
29
147
135
29
147
135
29
147
135
29
147
135
29
147
135
29
147
135
29
147
135
0
0
0
0
0
0
29
147
135
29
147
135
29
147
135
29
147
135
29
147
135
29
147
135
0
0
0
29
147
135
29
147
135
29
147
135
29
147
135
29
147
135
29
147
135
29
147
135
29
147
135
29
147
135
29
147
135
29
147
135
29
147
135
29
147
135
0
0
0
29
147
135
29
147
135
29
147
135
29
147
135
29
147
135
29
147
135
29
147
135
29
147
135
29
147
135
29
147
135
29
147
135
29
147
135
29
147
135
0
0
0
29
147
135
29
147
135
29
147
135
29
147
135
29
147
135
29
147
135
29
147
135
29
147
135
29
147
135
29
147
135
29
147
135
29
147
135
29
147
135
0
0
0
29
147
135
29
147
135
29
147
135
29
147
135
29
147
135
29
147
135
29
147
135
29
147
135
29
147
135
29
147
135
29
147
135
29
147
135
29
147
135
0
0
0
0
0
0
0
0
0
0
0
0
0
0
0
0
0
0
0
0
0
0
0
0
0
0
0
0
0
0
0
0
0
0
0
0
0
0
0
0
0
0
0
0
0
0
0
0
0
0
0
0
0
0
0
0
0
0
0
0
0
0
0
0
0
0
0
0
0
0
0
0
0
0
0
0
0
0
0
0
0
0
0
0
0
0
0
0
0
0
0
0
0
0
0
0
0
0
0
0
0
0
0
0
0
0
0
0
0
0
0
0
0
0
0
0
0
0
0
0
0
0
0
0
0
0
0
0
0
0
0
0
0
0
0
0
0
0
0
0
0
0
0
0
0
0
0
0
0
0
0
0
0
0
0
0
0
0
0
0
0
0
0
0
0
0
0
0
0
0
0
0
0
0
0
0
0
0
0
0
0
0
0
0
0
0
0
0
0
0
0
0
0
0
0
0
0
0
29
147
135
29
147
135
29
147
135
29
147
135
29
147
135
29
147
135
29
147
135
29
147
135
29
147
135
29
147
135
29
147
135
29
147
135
29
147
135
0
0
0
29
147
135
29
147
135
29
147
135
29
147
135
29
147
135
29
147
135
29
147
135
29
147
135
29
147
135
29
147
135
29
147
135
29
147
135
29
147
135
0
0
0
29
147
135
29
147
135
29
147
135
29
147
135
29
147
135
29
147
135
29
147
135
29
147
135
29
147
135
29
147
135
29
147
135
29
147
135
29
147
135
0
0
0
29
147
135
29
147
135
29
147
135
29
147
135
29
147
135
29
147
135
29
147
135
29
147
135
29
147
135
29
147
135
29
147
135
29
147
135
29
147
135
0
0
0
29
147
135
29
147
135
29
147
135
29
147
135
29
147
135
29
147
135
0
0
0
0
0
0
29
147
135
29
147
135
29
147
135
29
147
135
29
147
135
29
147
135
29
147
135
29
147
135
29
147
135
29
147
135
29
147
135
29
147
135
29
147
135
0
0
0
29
147
135
29
147
135
29
147
135
29
147
135
29
147
135
29
147
135
29
147
135
29
147
135
29
147
135
29
147
135
29
147
135
29
147
135
29
147
135
0
0
0
29
147
135
29
147
135
29
147
135
29
147
135
29
147
135
29
147
135
29
147
135
29
147
135
29
147
135
29
147
135
29
147
135
29
147
135
29
147
135
0
0
0
29
147
135
29
147
135
29
147
135
29
147
135
29
147
135
29
147
135
29
147
135
29
147
135
29
147
135
29
147
135
29
147
135
29
147
135
29
147
135
0
0
0
29
147
135
29
147
135
29
147
135
29
147
135
29
147
135
29
147
135
0
0
0
0
0
0
29
147
135
29
147
135
29
147
135
29
147
135
29
147
135
29
147
135
29
147
135
29
147
135
29
147
135
29
147
135
29
147
135
29
147
135
29
147
135
0
0
0
29
147
135
29
147
135
29
147
135
29
147
135
29
147
135
29
147
135
29
147
135
29
147
135
29
147
135
29
147
135
29
147
135
29
147
135
29
147
135
0
0
0
29
147
135
29
147
135
29
147
135
29
147
135
29
147
135
29
147
135
29
147
135
29
147
135
29
147
135
29
147
135
29
147
135
29
147
135
29
147
135
0
0
0
29
147
135
29
147
135
29
147
135
29
147
135
29
147
135
29
147
135
29
147
135
29
147
135
29
147
135
29
147
135
29
147
135
29
147
135
29
147
135
0
0
0
29
147
135
29
147
135
29
147
135
29
147
135
29
147
135
29
147
135
0
0
0
0
0
0
29
147
135
29
147
135
29
147
135
29
147
135
29
147
135
29
147
135
29
147
135
29
147
135
29
147
135
29
147
135
29
147
135
29
147
135
29
147
135
0
0
0
29
147
135
29
147
135
29
147
135
29
147
135
29
147
135
29
147
135
29
147
135
29
147
135
29
147
135
29
147
135
29
147
135
29
147
135
29
147
135
0
0
0
29
147
135
29
147
135
29
147
135
29
147
135
29
147
135
29
147
135
29
147
135
29
147
135
29
147
135
29
147
135
29
147
135
29
147
135
29
147
135
0
0
0
29
147
135
29
147
135
29
147
135
29
147
135
29
147
135
29
147
135
29
147
135
29
147
135
29
147
135
29
147
135
29
147
135
29
147
135
29
147
135
0
0
0
29
147
135
29
147
135
29
147
135
29
147
135
29
147
135
29
147
135
0
0
0
0
0
0
0
0
0
0
0
0
0
0
0
0
0
0
0
0
0
0
0
0
0
0
0
0
0
0
0
0
0
0
0
0
0
0
0
0
0
0
0
0
0
0
0
0
0
0
0
0
0
0
0
0
0
0
0
0
0
0
0
0
0
0
0
0
0
0
0
0
0
0
0
0
0
0
0
0
0
0
0
0
0
0
0
0
0
0
0
0
0
0
0
0
0
0
0
0
0
0
0
0
0
0
0
0
0
0
0
0
0
0
0
0
0
0
0
0
0
0
0
0
0
0
0
0
0
0
0
0
0
0
0
0
0
0
0
0
0
0
0
0
0
0
0
0
0
0
0
0
0
0
0
0
0
0
0
0
0
0
0
0
0
0
0
0
0
0
0
0
0
0
0
0
0
0
0
0
0
0
0
0
0
0
0
0
0
0
0
0
0
0
0
0
0
0
29
147
135
29
147
135
29
147
135
29
147
135
29
147
135
29
147
135
0
0
0
29
147
135
29
147
135
29
147
135
29
147
135
29
147
135
29
147
135
29
147
135
29
147
135
29
147
135
29
147
135
29
147
135
29
147
135
29
147
135
0
0
0
29
147
135
29
147
135
29
147
135
29
147
135
29
147
135
29
147
135
29
147
135
29
147
135
29
147
135
29
147
135
29
147
135
29
147
135
29
147
135
0
0
0
29
147
135
29
147
135
29
147
135
29
147
135
29
147
135
29
147
135
29
147
135
29
147
135
29
147
135
29
147
135
29
147
135
29
147
135
29
147
135
0
0
0
29
147
135
29
147
135
29
147
135
29
147
135
29
147
135
29
147
135
29
147
135
29
147
135
29
147
135
29
147
135
29
147
135
29
147
135
29
147
135
0
0
0
0
0
0
29
147
135
29
147
135
29
147
135
29
147
135
29
147
135
29
147
135
0
0
0
29
147
135
29
147
135
29
147
135
29
147
135
29
147
135
29
147
135
29
147
135
29
147
135
29
147
135
29
147
135
29
147
135
29
147
135
29
147
135
0
0
0
29
147
135
29
147
135
29
147
135
29
147
135
29
147
135
29
147
135
29
147
135
29
147
135
29
147
135
29
147
135
29
147
135
29
147
135
29
147
135
0
0
0
29
147
135
29
147
135
29
147
135
29
147
135
29
147
135
29
147
135
29
147
135
29
147
135
29
147
135
29
147
135
29
147
135
29
147
135
29
147
135
0
0
0
29
147
135
29
147
135
29
147
135
29
147
135
29
147
135
29
147
135
29
147
135
29
147
135
29
147
135
29
147
135
29
147
135
29
147
135
29
147
135
0
0
0
0
0
0
29
147
135
29
147
135
29
147
135
29
147
135
29
147
135
29
147
135
0
0
0
29
147
135
29
147
135
29
147
135
29
147
135
29
147
135
29
147
135
29
147
135
29
147
135
29
147
135
29
147
135
29
147
135
29
147
135
29
147
135
0
0
0
29
147
135
29
147
135
29
147
135
29
147
135
29
147
135
29
147
135
29
147
135
29
147
135
29
147
135
29
147
135
29
147
135
29
147
135
29
147
135
0
0
0
29
147
135
29
147
135
29
147
135
29
147
135
29
147
135
29
147
135
29
147
135
29
147
135
29
147
135
29
147
135
29
147
135
29
147
135
29
147
135
0
0
0
29
147
135
29
147
135
29
147
135
29
147
135
29
147
135
29
147
135
29
147
135
29
147
135
29
147
135
29
147
135
29
147
135
29
147
135
29
147
135
0
0
0
0
0
0
29
147
135
29
147
135
29
147
135
29
147
135
29
147
135
29
147
135
0
0
0
29
147
135
29
147
135
29
147
135
29
147
135
29
147
135
29
147
135
29
147
135
29
147
135
29
147
135
29
147
135
29
147
135
29
147
135
29
147
135
0
0
0
29
147
135
29
147
135
29
147
135
29
147
135
29
147
135
29
147
135
29
147
135
29
147
135
29
147
135
29
147
135
29
147
135
29
147
135
29
147
135
0
0
0
29
147
135
29
147
135
29
147
135
29
147
135
29
147
135
29
147
135
29
147
135
29
147
135
29
147
135
29
147
135
29
147
135
29
147
135
29
147
135
0
0
0
29
147
135
29
147
135
29
147
135
29
147
135
29
147
135
29
147
135
29
147
135
29
147
135
29
147
135
29
147
135
29
147
135
29
147
135
29
147
135
0
0
0
0
0
0
0
0
0
0
0
0
0
0
0
0
0
0
0
0
0
0
0
0
0
0
0
0
0
0
0
0
0
0
0
0
0
0
0
0
0
0
0
0
0
0
0
0
0
0
0
0
0
0
0
0
0
0
0
0
0
0
0
0
0
0
0
0
0
0
0
0
0
0
0
0
0
0
0
0
0
0
0
0
0
0
0
0
0
0
0
0
0
0
0
0
0
0
0
0
0
0
0
0
0
0
0
0
0
0
0
0
0
0
0
0
0
0
0
0
0
0
0
0
0
0
0
0
0
0
0
0
0
0
0
0
0
0
0
0
0
0
0
0
0
0
0
0
0
0
0
0
0
0
0
0
0
0
0
0
0
0
0
0
0
0
0
0
0
0
0
0
0
0
0
0
0
0
0
0
0
0
0
0
0
0
0
0
0
0
0
0
0
0
0
0
0
0
29
147
135
29
147
135
29
147
135
29
147
135
29
147
135
29
147
135
29
147
135
29
147
135
29
147
135
29
147
135
29
147
135
29
147
135
29
147
135
0
0
0
29
147
135
29
147
135
29
147
135
29
147
135
29
147
135
29
147
135
29
147
135
29
147
135
29
147
135
29
147
135
29
147
135
29
147
135
29
147
135
0
0
0
29
147
135
29
147
135
29
147
135
29
147
135
29
147
135
29
147
135
29
147
135
29
147
135
29
147
135
29
147
135
29
147
135
29
147
135
29
147
135
0
0
0
29
147
135
29
147
135
29
147
135
29
147
135
29
147
135
29
147
135
29
147
135
29
147
135
29
147
135
29
147
135
29
147
135
29
147
135
29
147
135
0
0
0
29
147
135
29
147
135
29
147
135
29
147
135
29
147
135
29
147
135
0
0
0
0
0
0
29
147
135
29
147
135
29
147
135
29
147
135
29
147
135
29
147
135
29
147
135
29
147
135
29
147
135
29
147
135
29
147
135
29
147
135
29
147
135
0
0
0
29
147
135
29
147
135
29
147
135
29
147
135
29
147
135
29
147
135
29
147
135
29
147
135
29
147
135
29
147
135
29
147
135
29
147
135
29
147
135
0
0
0
29
147
135
29
147
135
29
147
135
29
147
135
29
147
135
29
147
135
29
147
135
29
147
135
29
147
135
29
147
135
29
147
135
29
147
135
29
147
135
0
0
0
29
147
135
29
147
135
29
147
135
29
147
135
29
147
135
29
147
135
29
147
135
29
147
135
29
147
135
29
147
135
29
147
135
29
147
135
29
147
135
0
0
0
29
147
135
29
147
135
29
147
135
29
147
135
29
147
135
29
147
135
0
0
0
0
0
0
29
147
135
29
147
135
29
147
135
29
147
135
29
147
135
29
147
135
29
147
135
29
147
135
29
147
135
29
147
135
29
147
135
29
147
135
29
147
135
0
0
0
29
147
135
29
147
135
29
147
135
29
147
135
29
147
135
29
147
135
29
147
135
29
147
135
29
147
135
29
147
135
29
147
135
29
147
135
29
147
135
0
0
0
29
147
135
29
147
135
29
147
135
29
147
135
29
147
135
29
147
135
29
147
135
29
147
135
29
147
135
29
147
135
29
147
135
29
147
135
29
147
135
0
0
0
29
147
135
29
147
135
29
147
135
29
147
135
29
147
135
29
147
135
29
147
135
29
147
135
29
147
135
29
147
135
29
147
135
29
147
135
29
147
135
0
0
0
29
147
135
29
147
135
29
147
135
29
147
135
29
147
135
29
147
135
0
0
0
0
0
0
29
147
135
29
147
135
29
147
135
29
147
135
29
147
135
29
147
135
29
147
135
29
147
135
29
147
135
29
147
135
29
147
135
29
147
135
29
147
135
0
0
0
29
147
135
29
147
135
29
147
135
29
147
135
29
147
135
29
147
135
29
147
135
29
147
135
29
147
135
29
147
135
29
147
135
29
147
135
29
147
135
0
0
0
29
147
135
29
147
135
29
147
135
29
147
135
29
147
135
29
147
135
29
147
135
29
147
135
29
147
135
29
147
135
29
147
135
29
147
135
29
147
135
0
0
0
29
147
135
29
147
135
29
147
135
29
147
135
29
147
135
29
147
135
29
147
135
29
147
135
29
147
135
29
147
135
29
147
135
29
147
135
29
147
135
0
0
0
29
147
135
29
147
135
29
147
135
29
147
135
29
147
135
29
147
135
0
0
0
0
0
0
0
0
0
0
0
0
0
0
0
0
0
0
0
0
0
0
0
0
0
0
0
0
0
0
0
0
0
0
0
0
0
0
0
0
0
0
0
0
0
0
0
0
0
0
0
0
0
0
0
0
0
0
0
0
0
0
0
0
0
0
0
0
0
0
0
0
0
0
0
0
0
0
0
0
0
0
0
0
0
0
0
0
0
0
0
0
0
0
0
0
0
0
0
0
0
0
0
0
0
0
0
0
0
0
0
0
0
0
0
0
0
0
0
0
0
0
0
0
0
0
0
0
0
0
0
0
0
0
0
0
0
0
0
0
0
0
0
0
0
0
0
0
0
0
0
0
0
0
0
0
0
0
0
0
0
0
0
0
0
0
0
0
0
0
0
0
0
0
0
0
0
0
0
0
0
0
0
0
0
0
0
0
0
0
0
0
0
0
0
0
0
0
29
147
135
29
147
135
29
147
135
29
147
135
29
147
135
29
147
135
0
0
0
29
147
135
29
147
135
29
147
135
29
147
135
29
147
135
29
147
135
29
147
135
29
147
135
29
147
135
29
147
135
29
147
135
29
147
135
29
147
135
0
0
0
29
147
135
29
147
135
29
147
135
29
147
135
29
147
135
29
147
135
29
147
135
29
147
135
29
147
135
29
147
135
29
147
135
29
147
135
29
147
135
0
0
0
29
147
135
29
147
135
29
147
135
29
147
135
29
147
135
29
147
135
29
147
135
29
147
135
29
147
135
29
147
135
29
147
135
29
147
135
29
147
135
0
0
0
29
147
135
29
147
135
29
147
135
29
147
135
29
147
135
29
147
135
29
147
135
29
147
135
29
147
135
29
147
135
29
147
135
29
147
135
29
147
135
0
0
0
0
0
0
29
147
135
29
147
135
29
147
135
29
147
135
29
147
135
29
147
135
0
0
0
29
147
135
29
147
135
29
147
135
29
147
135
29
147
135
29
147
135
29
147
135
29
147
135
29
147
135
29
147
135
29
147
135
29
147
135
29
147
135
0
0
0
29
147
135
29
147
135
29
147
135
29
147
135
29
147
135
29
147
135
29
147
135
29
147
135
29
147
135
29
147
135
29
147
135
29
147
135
29
147
135
0
0
0
29
147
135
29
147
135
29
147
135
29
147
135
29
147
135
29
147
135
29
147
135
29
147
135
29
147
135
29
147
135
29
147
135
29
147
135
29
147
135
0
0
0
29
147
135
29
147
135
29
147
135
29
147
135
29
147
135
29
147
135
29
147
135
29
147
135
29
147
135
29
147
135
29
147
135
29
147
135
29
147
135
0
0
0
0
0
0
29
147
135
29
147
135
29
147
135
29
147
135
29
147
135
29
147
135
0
0
0
29
147
135
29
147
135
29
147
135
29
147
135
29
147
135
29
147
135
29
147
135
29
147
135
29
147
135
29
147
135
29
147
135
29
147
135
29
147
135
0
0
0
29
147
135
29
147
135
29
147
135
29
147
135
29
147
135
29
147
135
29
147
135
29
147
135
29
147
135
29
147
135
29
147
135
29
147
135
29
147
135
0
0
0
29
147
135
29
147
135
29
147
135
29
147
135
29
147
135
29
147
135
29
147
135
29
147
135
29
147
135
29
147
135
29
147
135
29
147
135
29
147
135
0
0
0
29
147
135
29
147
135
29
147
135
29
147
135
29
147
135
29
147
135
29
147
135
29
147
135
29
147
135
29
147
135
29
147
135
29
147
135
29
147
135
0
0
0
0
0
0
29
147
135
29
147
135
29
147
135
29
147
135
29
147
135
29
147
135
0
0
0
29
147
135
29
147
135
29
147
135
29
147
135
29
147
135
29
147
135
29
147
135
29
147
135
29
147
135
29
147
135
29
147
135
29
147
135
29
147
135
0
0
0
29
147
135
29
147
135
29
147
135
29
147
135
29
147
135
29
147
135
29
147
135
29
147
135
29
147
135
29
147
135
29
147
135
29
147
135
29
147
135
0
0
0
29
147
135
29
147
135
29
147
135
29
147
135
29
147
135
29
147
135
29
147
135
29
147
135
29
147
135
29
147
135
29
147
135
29
147
135
29
147
135
0
0
0
29
147
135
29
147
135
29
147
135
29
147
135
29
147
135
29
147
135
29
147
135
29
147
135
29
147
135
29
147
135
29
147
135
29
147
135
29
147
135
0
0
0
0
0
0
0
0
0
0
0
0
0
0
0
0
0
0
0
0
0
0
0
0
0
0
0
0
0
0
0
0
0
0
0
0
0
0
0
0
0
0
0
0
0
0
0
0
0
0
0
0
0
0
0
0
0
0
0
0
0
0
0
0
0
0
0
0
0
0
0
0
0
0
0
0
0
0
0
0
0
0
0
0
0
0
0
0
0
0
0
0
0
0
0
0
0
0
0
0
0
0
0
0
0
0
0
0
0
0
0
0
0
0
0
0
0
0
0
0
0
0
0
0
0
0
0
0
0
0
0
0
0
0
0
0
0
0
0
0
0
0
0
0
0
0
0
0
0
0
0
0
0
0
0
0
0
0
0
0
0
0
0
0
0
0
0
0
0
0
0
0
0
0
0
0
0
0
0
0
0
0
0
0
0
0
0
0
0
0
0
0
0
0
0
0
0
0
29
147
135
29
147
135
29
147
135
29
147
135
29
147
135
29
147
135
29
147
135
29
147
135
29
147
135
29
147
135
29
147
135
29
147
135
29
147
135
0
0
0
29
147
135
29
147
135
29
147
135
29
147
135
29
147
135
29
147
135
29
147
135
29
147
135
29
147
135
29
147
135
29
147
135
29
147
135
29
147
135
0
0
0
29
147
135
29
147
135
29
147
135
29
147
135
29
147
135
29
147
135
29
147
135
29
147
135
29
147
135
29
147
135
29
147
135
29
147
135
29
147
135
0
0
0
29
147
135
29
147
135
29
147
135
29
147
135
29
147
135
29
147
135
29
147
135
29
147
135
29
147
135
29
147
135
29
147
135
29
147
135
29
147
135
0
0
0
29
147
135
29
147
135
29
147
135
29
147
135
29
147
135
29
147
135
0
0
0
0
0
0
29
147
135
29
147
135
29
147
135
29
147
135
29
147
135
29
147
135
29
147
135
29
147
135
29
147
135
29
147
135
29
147
135
29
147
135
29
147
135
0
0
0
29
147
135
29
147
135
29
147
135
29
147
135
29
147
135
29
147
135
29
147
135
29
147
135
29
147
135
29
147
135
29
147
135
29
147
135
29
147
135
0
0
0
29
147
135
29
147
135
29
147
135
29
147
135
29
147
135
29
147
135
29
147
135
29
147
135
29
147
135
29
147
135
29
147
135
29
147
135
29
147
135
0
0
0
29
147
135
29
147
135
29
147
135
29
147
135
29
147
135
29
147
135
29
147
135
29
147
135
29
147
135
29
147
135
29
147
135
29
147
135
29
147
135
0
0
0
29
147
135
29
147
135
29
147
135
29
147
135
29
147
135
29
147
135
0
0
0
0
0
0
29
147
135
29
147
135
29
147
135
29
147
135
29
147
135
29
147
135
29
147
135
29
147
135
29
147
135
29
147
135
29
147
135
29
147
135
29
147
135
0
0
0
29
147
135
29
147
135
29
147
135
29
147
135
29
147
135
29
147
135
29
147
135
29
147
135
29
147
135
29
147
135
29
147
135
29
147
135
29
147
135
0
0
0
29
147
135
29
147
135
29
147
135
29
147
135
29
147
135
29
147
135
29
147
135
29
147
135
29
147
135
29
147
135
29
147
135
29
147
135
29
147
135
0
0
0
29
147
135
29
147
135
29
147
135
29
147
135
29
147
135
29
147
135
29
147
135
29
147
135
29
147
135
29
147
135
29
147
135
29
147
135
29
147
135
0
0
0
29
147
135
29
147
135
29
147
135
29
147
135
29
147
135
29
147
135
0
0
0
0
0
0
29
147
135
29
147
135
29
147
135
29
147
135
29
147
135
29
147
135
29
147
135
29
147
135
29
147
135
29
147
135
29
147
135
29
147
135
29
147
135
0
0
0
29
147
135
29
147
135
29
147
135
29
147
135
29
147
135
29
147
135
29
147
135
29
147
135
29
147
135
29
147
135
29
147
135
29
147
135
29
147
135
0
0
0
29
147
135
29
147
135
29
147
135
29
147
135
29
147
135
29
147
135
29
147
135
29
147
135
29
147
135
29
147
135
29
147
135
29
147
135
29
147
135
0
0
0
29
147
135
29
147
135
29
147
135
29
147
135
29
147
135
29
147
135
29
147
135
29
147
135
29
147
135
29
147
135
29
147
135
29
147
135
29
147
135
0
0
0
29
147
135
29
147
135
29
147
135
29
147
135
29
147
135
29
147
135
0
0
0
0
0
0
0
0
0
0
0
0
0
0
0
0
0
0
0
0
0
0
0
0
0
0
0
0
0
0
0
0
0
0
0
0
0
0
0
0
0
0
0
0
0
0
0
0
0
0
0
0
0
0
0
0
0
0
0
0
0
0
0
0
0
0
0
0
0
0
0
0
0
0
0
0
0
0
0
0
0
0
0
0
0
0
0
0
0
0
0
0
0
0
0
0
0
0
0
0
0
0
0
0
0
0
0
0
0
0
0
0
0
0
0
0
0
0
0
0
0
0
0
0
0
0
0
0
0
0
0
0
0
0
0
0
0
0
0
0
0
0
0
0
0
0
0
0
0
0
0
0
0
0
0
0
0
0
0
0
0
0
0
0
0
0
0
0
0
0
0
0
0
0
0
0
0
0
0
0
0
0
0
0
0
0
0
0
0
0
0
0
0
0
0
0
0
0
29
147
135
29
147
135
29
147
135
29
147
135
29
147
135
29
147
135
0
0
0
29
147
135
29
147
135
29
147
135
29
147
135
29
147
135
29
147
135
29
147
135
29
147
135
29
147
135
29
147
135
29
147
135
29
147
135
29
147
135
0
0
0
29
147
135
29
147
135
29
147
135
29
147
135
29
147
135
29
147
135
29
147
135
29
147
135
29
147
135
29
147
135
29
147
135
29
147
135
29
147
135
0
0
0
29
147
135
29
147
135
29
147
135
29
147
135
29
147
135
29
147
135
29
147
135
29
147
135
29
147
135
29
147
135
29
147
135
29
147
135
29
147
135
0
0
0
29
147
135
29
147
135
29
147
135
29
147
135
29
147
135
29
147
135
29
147
135
29
147
135
29
147
135
29
147
135
29
147
135
29
147
135
29
147
135
0
0
0
0
0
0
29
147
135
29
147
135
29
147
135
29
147
135
29
147
135
29
147
135
0
0
0
29
147
135
29
147
135
29
147
135
29
147
135
29
147
135
29
147
135
29
147
135
29
147
135
29
147
135
29
147
135
29
147
135
29
147
135
29
147
135
0
0
0
29
147
135
29
147
135
29
147
135
29
147
135
29
147
135
29
147
135
29
147
135
29
147
135
29
147
135
29
147
135
29
147
135
29
147
135
29
147
135
0
0
0
29
147
135
29
147
135
29
147
135
29
147
135
29
147
135
29
147
135
29
147
135
29
147
135
29
147
135
29
147
135
29
147
135
29
147
135
29
147
135
0
0
0
29
147
135
29
147
135
29
147
135
29
147
135
29
147
135
29
147
135
29
147
135
29
147
135
29
147
135
29
147
135
29
147
135
29
147
135
29
147
135
0
0
0
0
0
0
29
147
135
29
147
135
29
147
135
29
147
135
29
147
135
29
147
135
0
0
0
29
147
135
29
147
135
29
147
135
29
147
135
29
147
135
29
147
135
29
147
135
29
147
135
29
147
135
29
147
135
29
147
135
29
147
135
29
147
135
0
0
0
29
147
135
29
147
135
29
147
135
29
147
135
29
147
135
29
147
135
29
147
135
29
147
135
29
147
135
29
147
135
29
147
135
29
147
135
29
147
135
0
0
0
29
147
135
29
147
135
29
147
135
29
147
135
29
147
135
29
147
135
29
147
135
29
147
135
29
147
135
29
147
135
29
147
135
29
147
135
29
147
135
0
0
0
29
147
135
29
147
135
29
147
135
29
147
135
29
147
135
29
147
135
29
147
135
29
147
135
29
147
135
29
147
135
29
147
135
29
147
135
29
147
135
0
0
0
0
0
0
29
147
135
29
147
135
29
147
135
29
147
135
29
147
135
29
147
135
0
0
0
29
147
135
29
147
135
29
147
135
29
147
135
29
147
135
29
147
135
29
147
135
29
147
135
29
147
135
29
147
135
29
147
135
29
147
135
29
147
135
0
0
0
29
147
135
29
147
135
29
147
135
29
147
135
29
147
135
29
147
135
29
147
135
29
147
135
29
147
135
29
147
135
29
147
135
29
147
135
29
147
135
0
0
0
29
147
135
29
147
135
29
147
135
29
147
135
29
147
135
29
147
135
29
147
135
29
147
135
29
147
135
29
147
135
29
147
135
29
147
135
29
147
135
0
0
0
29
147
135
29
147
135
29
147
135
29
147
135
29
147
135
29
147
135
29
147
135
29
147
135
29
147
135
29
147
135
29
147
135
29
147
135
29
147
135
0
0
0
0
0
0
0
0
0
0
0
0
0
0
0
0
0
0
0
0
0
0
0
0
0
0
0
0
0
0
0
0
0
0
0
0
0
0
0
0
0
0
0
0
0
0
0
0
0
0
0
0
0
0
0
0
0
0
0
0
0
0
0
0
0
0
0
0
0
0
0
0
0
0
0
0
0
0
0
0
0
0
0
0
0
0
0
0
0
0
0
0
0
0
0
0
0
0
0
0
0
0
0
0
0
0
0
0
0
0
0
0
0
0
0
0
0
0
0
0
0
0
0
0
0
0
0
0
0
0
0
0
0
0
0
0
0
0
0
0
0
0
0
0
0
0
0
0
0
0
0
0
0
0
0
0
0
0
0
0
0
0
0
0
0
0
0
0
0
0
0
0
0
0
0
0
0
0
0
0
0
0
0
0
0
0
0
0
0
0
0
0
0
0
0
0
0
0
29
147
135
29
147
135
29
147
135
29
147
135
29
147
135
29
147
135
29
147
135
29
147
135
29
147
135
29
147
135
29
147
135
29
147
135
29
147
135
0
0
0
29
147
135
29
147
135
29
147
135
29
147
135
29
147
135
29
147
135
29
147
135
29
147
135
29
147
135
29
147
135
29
147
135
29
147
135
29
147
135
0
0
0
29
147
135
29
147
135
29
147
135
29
147
135
29
147
135
29
147
135
29
147
135
29
147
135
29
147
135
29
147
135
29
147
135
29
147
135
29
147
135
0
0
0
29
147
135
29
147
135
29
147
135
29
147
135
29
147
135
29
147
135
29
147
135
29
147
135
29
147
135
29
147
135
29
147
135
29
147
135
29
147
135
0
0
0
29
147
135
29
147
135
29
147
135
29
147
135
29
147
135
29
147
135
0
0
0
0
0
0
29
147
135
29
147
135
29
147
135
29
147
135
29
147
135
29
147
135
29
147
135
29
147
135
29
147
135
29
147
135
29
147
135
29
147
135
29
147
135
0
0
0
29
147
135
29
147
135
29
147
135
29
147
135
29
147
135
29
147
135
29
147
135
29
147
135
29
147
135
29
147
135
29
147
135
29
147
135
29
147
135
0
0
0
29
147
135
29
147
135
29
147
135
29
147
135
29
147
135
29
147
135
29
147
135
29
147
135
29
147
135
29
147
135
29
147
135
29
147
135
29
147
135
0
0
0
29
147
135
29
147
135
29
147
135
29
147
135
29
147
135
29
147
135
29
147
135
29
147
135
29
147
135
29
147
135
29
147
135
29
147
135
29
147
135
0
0
0
29
147
135
29
147
135
29
147
135
29
147
135
29
147
135
29
147
135
0
0
0
0
0
0
29
147
135
29
147
135
29
147
135
29
147
135
29
147
135
29
147
135
29
147
135
29
147
135
29
147
135
29
147
135
29
147
135
29
147
135
29
147
135
0
0
0
29
147
135
29
147
135
29
147
135
29
147
135
29
147
135
29
147
135
29
147
135
29
147
135
29
147
135
29
147
135
29
147
135
29
147
135
29
147
135
0
0
0
29
147
135
29
147
135
29
147
135
29
147
135
29
147
135
29
147
135
29
147
135
29
147
135
29
147
135
29
147
135
29
147
135
29
147
135
29
147
135
0
0
0
29
147
135
29
147
135
29
147
135
29
147
135
29
147
135
29
147
135
29
147
135
29
147
135
29
147
135
29
147
135
29
147
135
29
147
135
29
147
135
0
0
0
29
147
135
29
147
135
29
147
135
29
147
135
29
147
135
29
147
135
0
0
0
0
0
0
29
147
135
29
147
135
29
147
135
29
147
135
29
147
135
29
147
135
29
147
135
29
147
135
29
147
135
29
147
135
29
147
135
29
147
135
29
147
135
0
0
0
29
147
135
29
147
135
29
147
135
29
147
135
29
147
135
29
147
135
29
147
135
29
147
135
29
147
135
29
147
135
29
147
135
29
147
135
29
147
135
0
0
0
29
147
135
29
147
135
29
147
135
29
147
135
29
147
135
29
147
135
29
147
135
29
147
135
29
147
135
29
147
135
29
147
135
29
147
135
29
147
135
0
0
0
29
147
135
29
147
135
29
147
135
29
147
135
29
147
135
29
147
135
29
147
135
29
147
135
29
147
135
29
147
135
29
147
135
29
147
135
29
147
135
0
0
0
29
147
135
29
147
135
29
147
135
29
147
135
29
147
135
29
147
135
0
0
0
0
0
0
0
0
0
0
0
0
0
0
0
0
0
0
0
0
0
0
0
0
0
0
0
0
0
0
0
0
0
0
0
0
0
0
0
0
0
0
0
0
0
0
0
0
0
0
0
0
0
0
0
0
0
0
0
0
0
0
0
0
0
0
0
0
0
0
0
0
0
0
0
0
0
0
0
0
0
0
0
0
0
0
0
0
0
0
0
0
0
0
0
0
0
0
0
0
0
0
0
0
0
0
0
0
0
0
0
0
0
0
0
0
0
0
0
0
0
0
0
0
0
0
0
0
0
0
0
0
0
0
0
0
0
0
0
0
0
0
0
0
0
0
0
0
0
0
0
0
0
0
0
0
0
0
0
0
0
0
0
0
0
0
0
0
0
0
0
0
0
0
0
0
0
0
0
0
0
0
0
0
0
0
0
0
0
0
0
0
0
0
0
0
0
0
29
147
135
29
147
135
29
147
135
29
147
135
29
147
135
29
147
135
0
0
0
29
147
135
29
147
135
29
147
135
29
147
135
29
147
135
29
147
135
29
147
135
29
147
135
29
147
135
29
147
135
29
147
135
29
147
135
29
147
135
0
0
0
29
147
135
29
147
135
29
147
135
29
147
135
29
147
135
29
147
135
29
147
135
29
147
135
29
147
135
29
147
135
29
147
135
29
147
135
29
147
135
0
0
0
29
147
135
29
147
135
29
147
135
29
147
135
29
147
135
29
147
135
29
147
135
29
147
135
29
147
135
29
147
135
29
147
135
29
147
135
29
147
135
0
0
0
29
147
135
29
147
135
29
147
135
29
147
135
29
147
135
29
147
135
29
147
135
29
147
135
29
147
135
29
147
135
29
147
135
29
147
135
29
147
135
0
0
0
0
0
0
29
147
135
29
147
135
29
147
135
29
147
135
29
147
135
29
147
135
0
0
0
29
147
135
29
147
135
29
147
135
29
147
135
29
147
135
29
147
135
29
147
135
29
147
135
29
147
135
29
147
135
29
147
135
29
147
135
29
147
135
0
0
0
29
147
135
29
147
135
29
147
135
29
147
135
29
147
135
29
147
135
29
147
135
29
147
135
29
147
135
29
147
135
29
147
135
29
147
135
29
147
135
0
0
0
29
147
135
29
147
135
29
147
135
29
147
135
29
147
135
29
147
135
29
147
135
29
147
135
29
147
135
29
147
135
29
147
135
29
147
135
29
147
135
0
0
0
29
147
135
29
147
135
29
147
135
29
147
135
29
147
135
29
147
135
29
147
135
29
147
135
29
147
135
29
147
135
29
147
135
29
147
135
29
147
135
0
0
0
0
0
0
29
147
135
29
147
135
29
147
135
29
147
135
29
147
135
29
147
135
0
0
0
29
147
135
29
147
135
29
147
135
29
147
135
29
147
135
29
147
135
29
147
135
29
147
135
29
147
135
29
147
135
29
147
135
29
147
135
29
147
135
0
0
0
29
147
135
29
147
135
29
147
135
29
147
135
29
147
135
29
147
135
29
147
135
29
147
135
29
147
135
29
147
135
29
147
135
29
147
135
29
147
135
0
0
0
29
147
135
29
147
135
29
147
135
29
147
135
29
147
135
29
147
135
29
147
135
29
147
135
29
147
135
29
147
135
29
147
135
29
147
135
29
147
135
0
0
0
29
147
135
29
147
135
29
147
135
29
147
135
29
147
135
29
147
135
29
147
135
29
147
135
29
147
135
29
147
135
29
147
135
29
147
135
29
147
135
0
0
0
0
0
0
29
147
135
29
147
135
29
147
135
29
147
135
29
147
135
29
147
135
0
0
0
29
147
135
29
147
135
29
147
135
29
147
135
29
147
135
29
147
135
29
147
135
29
147
135
29
147
135
29
147
135
29
147
135
29
147
135
29
147
135
0
0
0
29
147
135
29
147
135
29
147
135
29
147
135
29
147
135
29
147
135
29
147
135
29
147
135
29
147
135
29
147
135
29
147
135
29
147
135
29
147
135
0
0
0
29
147
135
29
147
135
29
147
135
29
147
135
29
147
135
29
147
135
29
147
135
29
147
135
29
147
135
29
147
135
29
147
135
29
147
135
29
147
135
0
0
0
29
147
135
29
147
135
29
147
135
29
147
135
29
147
135
29
147
135
29
147
135
29
147
135
29
147
135
29
147
135
29
147
135
29
147
135
29
147
135
0
0
0
0
0
0
0
0
0
0
0
0
0
0
0
0
0
0
0
0
0
0
0
0
0
0
0
0
0
0
0
0
0
0
0
0
0
0
0
0
0
0
0
0
0
0
0
0
0
0
0
0
0
0
0
0
0
0
0
0
0
0
0
0
0
0
0
0
0
0
0
0
0
0
0
0
0
0
0
0
0
0
0
0
0
0
0
0
0
0
0
0
0
0
0
0
0
0
0
0
0
0
0
0
0
0
0
0
0
0
0
0
0
0
0
0
0
0
0
0
0
0
0
0
0
0
0
0
0
0
0
0
0
0
0
0
0
0
0
0
0
0
0
0
0
0
0
0
0
0
0
0
0
0
0
0
0
0
0
0
0
0
0
0
0
0
0
0
0
0
0
0
0
0
0
0
0
0
0
0
0
0
0
0
0
0
0
0
0
0
0
0
0
0
0
0
0
0
29
147
135
29
147
135
29
147
135
29
147
135
29
147
135
29
147
135
29
147
135
29
147
135
29
147
135
29
147
135
29
147
135
29
147
135
29
147
135
0
0
0
29
147
135
29
147
135
29
147
135
29
147
135
29
147
135
29
147
135
29
147
135
29
147
135
29
147
135
29
147
135
29
147
135
29
147
135
29
147
135
0
0
0
29
147
135
29
147
135
29
147
135
29
147
135
29
147
135
29
147
135
29
147
135
29
147
135
29
147
135
29
147
135
29
147
135
29
147
135
29
147
135
0
0
0
29
147
135
29
147
135
29
147
135
29
147
135
29
147
135
29
147
135
29
147
135
29
147
135
29
147
135
29
147
135
29
147
135
29
147
135
29
147
135
0
0
0
29
147
135
29
147
135
29
147
135
29
147
135
29
147
135
29
147
135
0
0
0
0
0
0
29
147
135
29
147
135
29
147
135
29
147
135
29
147
135
29
147
135
29
147
135
29
147
135
29
147
135
29
147
135
29
147
135
29
147
135
29
147
135
0
0
0
29
147
135
29
147
135
29
147
135
29
147
135
29
147
135
29
147
135
29
147
135
29
147
135
29
147
135
29
147
135
29
147
135
29
147
135
29
147
135
0
0
0
29
147
135
29
147
135
29
147
135
29
147
135
29
147
135
29
147
135
29
147
135
29
147
135
29
147
135
29
147
135
29
147
135
29
147
135
29
147
135
0
0
0
29
147
135
29
147
135
29
147
135
29
147
135
29
147
135
29
147
135
29
147
135
29
147
135
29
147
135
29
147
135
29
147
135
29
147
135
29
147
135
0
0
0
29
147
135
29
147
135
29
147
135
29
147
135
29
147
135
29
147
135
0
0
0
0
0
0
0
0
0
0
0
0
0
0
0
0
0
0
0
0
0
0
0
0
0
0
0
0
0
0
0
0
0
0
0
0
0
0
0
0
0
0
0
0
0
0
0
0
0
0
0
0
0
0
0
0
0
0
0
0
0
0
0
0
0
0
0
0
0
0
0
0
0
0
0
0
0
0
0
0
0
0
0
0
0
0
0
0
0
0
0
0
0
0
0
0
0
0
0
0
0
0
0
0
0
0
0
0
0
0
0
0
0
0
0
0
0
0
0
0
0
0
0
0
0
0
0
0
0
0
0
0
0
0
0
0
0
0
0
0
0
0
0
0
0
0
0
0
0
0
0
0
0
0
0
0
0
0
0
0
0
0
0
0
0
0
0
0
0
0
0
0
0
0
0
0
0
0
0
0
0
0
0
0
0
0
0
0
0
0
0
0
0
0
0
